# File created by Blade
# Date/Time:  Fri Jan 16 15:45:56 2015
#---------------------------------------------------------
:version 1.10
:name HOM
:units
  mass 1.0
  length 1.000000
  angle deg
:documentation
     Acclaim Skeleton File
:root
   axis xyz
   order TX TY TZ RX RY RZ
   position 0.000000 0.000000 0.000000
   orientation 0 0 0
:bonedata
   begin
      id 1
      name Spine_dum
      direction 0.000000 1.000000 0.000000
      length 7.170412
      axis 0.0 0.0 0.0 xyz
   end
   begin
      id 2
      name LeftUpLeg_dum
      direction 1.000000 0.000000 0.000000
      length 4.318350
      axis 0.0 0.0 0.0 xyz
   end
   begin
      id 3
      name RightUpLeg_dum
      direction -1.000000 0.000000 0.000000
      length 4.318350
      axis 0.0 0.0 0.0 xyz
   end
   begin
      id 4
      name Spine
      direction 0.000000 1.000000 0.000000
      length 0.000000
      axis 0.0 0.0 0.0 xyz
      dof rx ry rz
   end
   begin
      id 5
      name Spine_dum1
      direction 0.000000 1.000000 0.000000
      length 14.276153
      axis 0.0 0.0 0.0 xyz
   end
   begin
      id 6
      name Spine_dum2
      direction 0.000000 1.000000 0.000000
      length 10.718243
      axis 0.0 0.0 0.0 xyz
   end
   begin
      id 7
      name Spine_dum3
      direction 0.000000 1.000000 0.000000
      length 10.718243
      axis 0.0 0.0 0.0 xyz
   end
   begin
      id 8
      name Head
      direction 0.000000 1.000000 0.000000
      length 4.527550
      axis 0.0 0.0 0.0 xyz
      dof rx ry rz
   end
   begin
      id 9
      name LeftShoulder
      direction 1.000000 0.000000 0.000000
      length 7.058872
      axis 0.0 0.0 -90.0 xyz
      dof rx ry rz
   end
   begin
      id 10
      name LeftArm
      direction 1.000000 0.000000 0.000000
      length 10.955525
      axis 0.0 0.0 -90.0 xyz
      dof rx ry rz
   end
   begin
      id 11
      name LeftForeArm
      direction 1.000000 0.000000 0.000000
      length 8.193716
      axis 0.0 0.0 -90.0 xyz
      dof ry rz rx
   end
   begin
      id 12
      name LeftHand
      direction 0.000000 0.000000 0.000000
      length 0.000000
      axis 0.0 0.0 -90.0 xyz
      dof rx ry rz
   end
   begin
      id 13
      name LeftHand_dum1
      direction 0.000000 0.000000 0.000000
      length 0.000000
      axis 0.0 0.0 -90.0 xyz
   end
   begin
      id 14
      name LeftHand_dum2
      direction 1.000000 0.000000 0.000000
      length 3.937000
      axis 0.0 0.0 -90.0 xyz
   end
   begin
      id 15
      name LeftHandThumb1
      direction 0.000000 0.000000 1.000000
      length 3.937000
      axis 0.0 0.0 -90.0 xyz
      dof rx rz ry
   end
   begin
      id 16
      name RightShoulder
      direction -1.000000 0.000000 0.000000
      length 7.058872
      axis 0.0 0.0 90.0 xyz
      dof rx ry rz
   end
   begin
      id 17
      name RightArm
      direction -1.000000 0.000000 0.000000
      length 10.955525
      axis 0.0 0.0 90.0 xyz
      dof rx ry rz
   end
   begin
      id 18
      name RightForeArm
      direction -1.000000 0.000000 0.000000
      length 8.193716
      axis 0.0 0.0 90.0 xyz
      dof ry rz rx
   end
   begin
      id 19
      name RightHand
      direction 0.000000 0.000000 0.000000
      length 0.000000
      axis 0.0 0.0 90.0 xyz
      dof rx ry rz
   end
   begin
      id 20
      name RightHand_dum1
      direction 0.000000 0.000000 0.000000
      length 0.000000
      axis 0.0 0.0 90.0 xyz
   end
   begin
      id 21
      name RightHand_dum2
      direction -1.000000 0.000000 0.000000
      length 3.937000
      axis 0.0 0.0 90.0 xyz
   end
   begin
      id 22
      name RightHandThumb1
      direction 0.000000 0.000000 1.000000
      length 3.937000
      axis 0.0 0.0 90.0 xyz
      dof rx rz ry
   end
   begin
      id 23
      name LeftUpLeg
      direction 0.000000 -1.000000 0.000000
      length 17.323638
      axis 0.0 0.0 0.0 xyz
      dof rx ry rz
   end
   begin
      id 24
      name LeftLeg
      direction 0.000000 -1.000000 0.000000
      length 16.270368
      axis 0.0 0.0 0.0 xyz
      dof rx ry rz
   end
   begin
      id 25
      name LeftFoot
      direction 0.000000 -0.258819 0.965926
      length 4.922846
      axis 15.0 0.0 0.0 xyz
      dof rx ry rz
   end
   begin
      id 26
      name LeftToeBase
      direction 0.000000 0.000000 1.000000
      length 2.952750
      axis 0.0 0.0 0.0 xyz
      dof rx ry rz
   end
   begin
      id 27
      name RightUpLeg
      direction 0.000000 -1.000000 0.000000
      length 17.323638
      axis 0.0 0.0 0.0 xyz
      dof rx ry rz
   end
   begin
      id 28
      name RightLeg
      direction 0.000000 -1.000000 0.000000
      length 16.270368
      axis 0.0 0.0 0.0 xyz
      dof rx ry rz
   end
   begin
      id 29
      name RightFoot
      direction 0.000000 -0.258819 0.965926
      length 4.922846
      axis 15.0 0.0 0.0 xyz
      dof rx ry rz
   end
   begin
      id 30
      name RightToeBase
      direction 0.000000 0.000000 1.000000
      length 2.952750
      axis 0.0 0.0 0.0 xyz
      dof rx ry rz
   end
:hierarchy
   begin
      root Spine_dum LeftUpLeg_dum RightUpLeg_dum
      Spine_dum Spine
      LeftUpLeg_dum LeftUpLeg
      RightUpLeg_dum RightUpLeg
      Spine Spine_dum1 Spine_dum2 Spine_dum3
      Spine_dum1 Head
      Spine_dum2 LeftShoulder
      Spine_dum3 RightShoulder
      LeftShoulder LeftArm
      LeftArm LeftForeArm
      LeftForeArm LeftHand
      LeftHand LeftHand_dum1 LeftHand_dum2
      LeftHand_dum1 LeftHandThumb1
      RightShoulder RightArm
      RightArm RightForeArm
      RightForeArm RightHand
      RightHand RightHand_dum1 RightHand_dum2
      RightHand_dum1 RightHandThumb1
      LeftUpLeg LeftLeg
      LeftLeg LeftFoot
      LeftFoot LeftToeBase
      RightUpLeg RightLeg
      RightLeg RightFoot
      RightFoot RightToeBase
   end

# File created by Blade
# Date/Time:  Fri Jan 16 15:45:48 2015
# Frame Rate: 120.000 fps
#------------------------------------------------------
:FULLY-SPECIFIED
:DEGREES
2617
root -6.007801 35.254432 -9.680734 -3.697627 4.032411 -4.285920
Spine 1.461151 -9.738631 -10.013255
Head -9.305358 -10.847083 12.822321
LeftShoulder -23.067599 14.560605 -18.812123
LeftArm 20.492278 -1.273052 -64.765928
LeftForeArm 4.520565 -0.000000 17.596144
LeftHand 2.613682 -0.000000 -5.968992
LeftHandThumb1 -26.253704 0.000000 33.147579
RightShoulder -5.245574 8.950564 -40.558858
RightArm 25.948771 -20.456500 -13.906468
RightForeArm -65.425656 -0.000000 80.632738
RightHand 13.896190 0.000000 -0.061244
RightHandThumb1 -24.326973 -0.000000 -32.862282
LeftUpLeg 11.839669 7.232695 6.901156
LeftLeg -8.893788 -0.000000 0.000000
LeftFoot -13.775757 23.810663 -11.006956
LeftToeBase 21.679572 -0.000000 -0.000000
RightUpLeg 10.535132 -9.176226 1.535456
RightLeg -1.408983 -0.000000 0.000000
RightFoot -8.797656 -29.994553 6.851234
RightToeBase 12.890231 -0.000000 -0.000000
2618
root -5.996375 35.254554 -9.683224 -3.691297 4.019731 -4.268178
Spine 1.488779 -9.710885 -9.942241
Head -9.309095 -10.863233 12.768888
LeftShoulder -23.059104 14.490513 -18.824431
LeftArm 20.473663 -1.218314 -64.753840
LeftForeArm 4.588747 -0.000000 17.590202
LeftHand 2.584554 -0.000000 -5.982397
LeftHandThumb1 -26.253704 0.000000 33.147579
RightShoulder -5.293648 9.015742 -40.555609
RightArm 25.942565 -20.471840 -13.841722
RightForeArm -65.360249 0.000000 80.823665
RightHand 13.597662 -0.000000 -0.422172
RightHandThumb1 -24.326973 -0.000000 -32.862282
LeftUpLeg 11.832784 7.197684 6.853950
LeftLeg -8.881462 -0.000000 0.000000
LeftFoot -13.778512 23.851600 -11.074708
LeftToeBase 21.516491 -0.000000 -0.000000
RightUpLeg 10.546386 -9.175055 1.501589
RightLeg -1.455423 -0.000000 0.000000
RightFoot -8.758578 -30.016405 6.819427
RightToeBase 12.891126 -0.000000 -0.000000
2619
root -5.986042 35.254511 -9.682941 -3.692021 3.988588 -4.248454
Spine 1.503495 -9.672203 -9.866395
Head -9.288413 -10.854813 12.706425
LeftShoulder -23.065033 14.484721 -18.855620
LeftArm 20.509601 -1.176497 -64.738896
LeftForeArm 4.648906 -0.000000 17.583134
LeftHand 2.593505 -0.000000 -6.018488
LeftHandThumb1 -26.253704 0.000000 33.147579
RightShoulder -5.312812 9.000424 -40.555724
RightArm 25.920447 -20.398918 -13.797195
RightForeArm -65.210455 -0.000000 80.958634
RightHand 13.619264 0.000000 -0.498415
RightHandThumb1 -24.326973 -0.000000 -32.862282
LeftUpLeg 11.841214 7.240456 6.825402
LeftLeg -8.879416 -0.000000 0.000000
LeftFoot -13.800409 23.836399 -11.038215
LeftToeBase 21.667242 -0.000000 -0.000000
RightUpLeg 10.566620 -9.154510 1.468003
RightLeg -1.496347 -0.000000 0.000000
RightFoot -8.719329 -30.019836 6.775941
RightToeBase 12.920739 -0.000000 -0.000000
2620
root -5.976919 35.255161 -9.682677 -3.690374 3.958905 -4.229141
Spine 1.526502 -9.638289 -9.803636
Head -9.302584 -10.827405 12.698813
LeftShoulder -23.092618 14.450619 -18.878672
LeftArm 20.539299 -1.095960 -64.712348
LeftForeArm 4.794712 -0.000000 17.604742
LeftHand 2.561599 0.000000 -6.014017
LeftHandThumb1 -26.253704 0.000000 33.147579
RightShoulder -5.339723 9.011190 -40.552077
RightArm 25.911007 -20.325521 -13.758275
RightForeArm -65.151900 0.000000 81.029661
RightHand 13.723272 0.000000 -0.662219
RightHandThumb1 -24.326973 -0.000000 -32.862282
LeftUpLeg 11.848014 7.269751 6.793898
LeftLeg -8.873336 -0.000000 0.000000
LeftFoot -13.801907 23.830783 -11.043479
LeftToeBase 21.660184 -0.000000 -0.000000
RightUpLeg 10.582346 -9.124136 1.437329
RightLeg -1.532104 -0.000000 0.000000
RightFoot -8.698957 -30.018776 6.757147
RightToeBase 12.940806 -0.000000 -0.000000
